<?xml version="1.0" encoding="UTF-8"?>
<svg id="Camada_1" data-name="Camada 1" xmlns="http://www.w3.org/2000/svg" viewBox="0 0 496.29 88.17">
  <defs>
    <style>
      .cls-1 {
        fill: #0d1f3c;
      }

      .cls-2 {
        fill: #3b82f6;
      }
    </style>
  </defs>
  <path class="cls-1" d="M118.78,59.43c0,3.54.72,5.96,2.16,7.25,1.44,1.29,3.19,1.94,5.26,1.94s3.82-.66,5.04-1.99c1.22-1.33,1.83-3.1,1.83-5.31s1.14-3.43,3.43-3.43h4.54c2.66,0,3.98,1.33,3.98,3.98s-.46,5.2-1.38,7.41c-.92,2.21-2.21,4.09-3.87,5.64-1.66,1.55-3.65,2.75-5.98,3.6-2.32.85-4.85,1.27-7.58,1.27s-5.39-.41-7.75-1.22c-2.36-.81-4.39-2.03-6.09-3.65-1.7-1.62-3.04-3.67-4.04-6.14-1-2.47-1.49-5.33-1.49-8.58v-21.58c0-3.25.5-6.1,1.49-8.58,1-2.47,2.34-4.52,4.04-6.14,1.7-1.62,3.72-2.84,6.09-3.65,2.36-.81,4.94-1.22,7.75-1.22s5.26.43,7.58,1.27c2.32.85,4.32,2.05,5.98,3.6,1.66,1.55,2.95,3.43,3.87,5.64.92,2.21,1.38,4.69,1.38,7.41s-1.33,3.98-3.98,3.98h-4.54c-2.29,0-3.43-1.14-3.43-3.43s-.61-3.98-1.83-5.31-2.9-1.99-5.04-1.99-3.82.65-5.26,1.94c-1.44,1.29-2.16,3.71-2.16,7.25v20.03Z"/>
  <path class="cls-1" d="M184.4,67.84c.59,0,1.09-.02,1.49-.06.4-.04.94-.13,1.6-.28,1.33-.22,2.32.04,2.99.77.66.74,1,1.77,1,3.1v3.21c0,1.33-.31,2.27-.94,2.82-.63.55-1.49.94-2.6,1.16-1.03.22-2.01.35-2.93.39-.92.04-1.79.06-2.6.06-2.14,0-4.08-.26-5.81-.77-1.73-.52-3.23-1.36-4.48-2.55-1.26-1.18-2.21-2.75-2.88-4.7-.66-1.95-1-4.33-1-7.14V3.98c0-2.66,1.33-3.98,3.98-3.98h3.98c2.66,0,3.98,1.33,3.98,3.98v58.98c0,1.92.44,3.21,1.33,3.87s1.84,1,2.88,1Z"/>
  <path class="cls-1" d="M247.81,60.2c0,3.25-.5,6.11-1.49,8.58-1,2.47-2.34,4.52-4.04,6.14-1.7,1.62-3.75,2.84-6.14,3.65-2.4.81-4.96,1.22-7.69,1.22s-5.39-.41-7.75-1.22c-2.36-.81-4.41-1.95-6.14-3.43-1.73-1.48-3.08-3.3-4.04-5.48-.96-2.18-1.44-4.67-1.44-7.47v-.22c0-5.53,1.66-9.85,4.98-12.95s8.11-4.65,14.39-4.65h7.41v-4.98c0-3.54-.72-5.96-2.16-7.25-1.44-1.29-3.19-1.94-5.26-1.94s-3.73.57-4.76,1.72c-1.03,1.15-1.55,2.53-1.55,4.15,0,2.29-1.14,3.43-3.43,3.43h-4.54c-2.66,0-3.98-1.33-3.98-3.98,0-2.36.42-4.54,1.27-6.53.85-1.99,2.06-3.72,3.65-5.2,1.59-1.48,3.5-2.64,5.75-3.49,2.25-.85,4.78-1.27,7.58-1.27s5.29.41,7.69,1.22c2.4.81,4.44,2.03,6.14,3.65,1.7,1.62,3.04,3.67,4.04,6.14,1,2.47,1.49,5.33,1.49,8.58v21.58ZM228.44,68.61c2.06,0,3.82-.65,5.26-1.94,1.44-1.29,2.16-3.71,2.16-7.25v-6.09h-7.41c-2.07,0-3.82.57-5.26,1.72-1.44,1.14-2.16,3.12-2.16,5.92s.72,4.78,2.16,5.92c1.44,1.14,3.19,1.72,5.26,1.72Z"/>
  <path class="cls-1" d="M275.81,20.25h3.98c2.66,0,3.98,1.33,3.98,3.98v35.19c0,3.54.72,5.96,2.16,7.25,1.44,1.29,3.19,1.94,5.26,1.94s3.82-.65,5.26-1.94c1.44-1.29,2.16-3.71,2.16-7.25V24.24c0-2.66,1.33-3.98,3.98-3.98h3.98c2.66,0,3.98,1.33,3.98,3.98v35.97c0,3.25-.5,6.11-1.49,8.58-1,2.47-2.34,4.52-4.04,6.14-1.7,1.62-3.75,2.84-6.14,3.65-2.4.81-4.96,1.22-7.69,1.22s-5.39-.41-7.75-1.22c-2.36-.81-4.39-2.03-6.09-3.65-1.7-1.62-3.04-3.67-4.04-6.14-1-2.47-1.49-5.33-1.49-8.58V24.24c0-2.66,1.33-3.98,3.98-3.98Z"/>
  <path class="cls-1" d="M358.47,35.3c0-1.62-.55-2.88-1.66-3.76s-2.62-1.33-4.54-1.33-3.43.44-4.54,1.33-1.66,2.29-1.66,4.21v.22c0,1.92.63,3.43,1.88,4.54,1.25,1.11,2.8,2.09,4.65,2.93,1.84.85,3.87,1.7,6.09,2.55,2.21.85,4.24,1.96,6.09,3.32,1.84,1.37,3.39,3.14,4.65,5.31,1.25,2.18,1.88,5.04,1.88,8.58,0,2.66-.48,5.02-1.44,7.08-.96,2.07-2.27,3.8-3.93,5.2-1.66,1.4-3.65,2.47-5.98,3.21-2.32.74-4.85,1.11-7.58,1.11s-5.35-.41-7.64-1.22c-2.29-.81-4.26-1.9-5.92-3.26-1.66-1.36-2.95-3.01-3.87-4.92-.92-1.92-1.38-3.98-1.38-6.2v-.66c0-2.66,1.33-3.98,3.98-3.98h4.54c2.29,0,3.43,1.15,3.43,3.43,0,1.92.63,3.34,1.88,4.26,1.25.92,2.91,1.38,4.98,1.38s3.74-.44,5.04-1.33c1.29-.89,1.94-2.4,1.94-4.54v-.22c0-1.92-.63-3.41-1.88-4.48-1.25-1.07-2.8-2.01-4.65-2.82-1.85-.81-3.87-1.62-6.09-2.43-2.21-.81-4.24-1.9-6.09-3.26-1.84-1.36-3.39-3.12-4.65-5.26-1.26-2.14-1.88-4.98-1.88-8.52,0-5.31,1.68-9.42,5.04-12.34,3.36-2.91,7.73-4.37,13.11-4.37,2.73,0,5.2.41,7.42,1.22,2.21.81,4.11,1.94,5.7,3.38,1.58,1.44,2.82,3.1,3.71,4.98.88,1.88,1.33,3.93,1.33,6.14,0,2.66-1.33,3.98-3.98,3.98h-4.54c-2.29,0-3.43-1.14-3.43-3.43Z"/>
  <path class="cls-1" d="M419.56,62.42c0-2.29,1.14-3.43,3.43-3.43h4.54c2.66,0,3.98,1.33,3.98,3.98,0,5.02-1.72,9.07-5.15,12.17s-7.99,4.65-13.67,4.65c-2.8,0-5.39-.41-7.75-1.22-2.36-.81-4.39-2.03-6.09-3.65-1.7-1.62-3.04-3.67-4.04-6.14-1-2.47-1.49-5.33-1.49-8.58v-21.58c0-3.25.5-6.1,1.49-8.58,1-2.47,2.34-4.52,4.04-6.14,1.7-1.62,3.72-2.84,6.09-3.65,2.36-.81,4.94-1.22,7.75-1.22s5.29.41,7.69,1.22c2.4.81,4.44,2.03,6.14,3.65,1.7,1.62,3.04,3.67,4.04,6.14,1,2.47,1.49,5.33,1.49,8.58v9.41c0,2.66-1.33,3.98-3.98,3.98h-22.8v7.42c0,3.54.72,5.96,2.16,7.25,1.44,1.29,3.19,1.94,5.26,1.94s3.82-.55,5.04-1.66c1.22-1.11,1.83-2.62,1.83-4.54ZM405.29,43.05h14.83v-3.65c0-3.54-.72-5.96-2.16-7.25-1.44-1.29-3.19-1.94-5.26-1.94s-3.82.65-5.26,1.94c-1.44,1.29-2.16,3.71-2.16,7.25v3.65Z"/>
  <path class="cls-1" d="M481.2,62.42c0-2.29,1.14-3.43,3.43-3.43h4.54c2.66,0,3.98,1.33,3.98,3.98,0,5.02-1.72,9.07-5.15,12.17s-7.99,4.65-13.67,4.65c-2.8,0-5.39-.41-7.75-1.22-2.36-.81-4.39-2.03-6.09-3.65-1.7-1.62-3.04-3.67-4.04-6.14-1-2.47-1.49-5.33-1.49-8.58v-21.58c0-3.25.5-6.1,1.49-8.58,1-2.47,2.34-4.52,4.04-6.14,1.7-1.62,3.72-2.84,6.09-3.65,2.36-.81,4.94-1.22,7.75-1.22s5.29.41,7.69,1.22c2.4.81,4.44,2.03,6.14,3.65,1.7,1.62,3.04,3.67,4.04,6.14,1,2.47,1.49,5.33,1.49,8.58v9.41c0,2.66-1.33,3.98-3.98,3.98h-22.8v7.42c0,3.54.72,5.96,2.16,7.25,1.44,1.29,3.19,1.94,5.26,1.94s3.82-.55,5.04-1.66c1.22-1.11,1.83-2.62,1.83-4.54ZM466.93,43.05h14.83v-3.65c0-3.54-.72-5.96-2.16-7.25-1.44-1.29-3.19-1.94-5.26-1.94s-3.82.65-5.26,1.94c-1.44,1.29-2.16,3.71-2.16,7.25v3.65Z"/>
  <g>
    <path class="cls-2" d="M23.34,87.55c-1.98-.67-4.01-2.77-4.71-4.88-.91-2.77-.66-7.58.52-9.69,2.25-4.03,2.05-4,26-4,21.52,0,22.1.04,23.77,1.5,4.64,4.05,4.14,13.79-.86,16.61-1.74.98-4.83,1.13-22.59,1.07-11.31-.04-21.27-.31-22.14-.61Z"/>
    <path class="cls-2" d="M3.17,58.22c-1.2-.67-2.42-2.77-2.84-4.88-.55-2.77-.4-7.58.31-9.69,1.35-4.03,1.24-4,15.67-4,12.97,0,13.32.04,14.33,1.5,2.8,4.05,2.5,13.79-.52,16.61-1.05.98-2.91,1.13-13.61,1.07-6.82-.04-12.82-.31-13.34-.61Z"/>
    <path class="cls-2" d="M23.34,29.22c-1.98-.67-4.01-2.77-4.71-4.88-.91-2.77-.66-7.58.52-9.69,2.25-4.03,2.05-4,26-4,21.52,0,22.1.04,23.77,1.5,4.64,4.05,4.14,13.79-.86,16.61-1.74.98-4.83,1.13-22.59,1.07-11.31-.04-21.27-.31-22.14-.61Z"/>
  </g>
</svg>
