<?xml version="1.0" encoding="UTF-8"?>
<svg id="Camada_1" data-name="Camada 1" xmlns="http://www.w3.org/2000/svg" viewBox="0 0 72.12 77.52">
  <defs>
    <style>
      .cls-1 {
        fill: #010101;
      }
    </style>
  </defs>
  <path class="cls-1" d="M23.34,76.9c-1.98-.67-4.01-2.77-4.71-4.88-.91-2.77-.66-7.58.52-9.69,2.25-4.03,2.05-4,26-4,21.52,0,22.1.04,23.77,1.5,4.64,4.05,4.14,13.79-.86,16.61-1.74.98-4.83,1.13-22.59,1.07-11.31-.04-21.27-.31-22.14-.61Z"/>
  <path class="cls-1" d="M3.17,47.57c-1.2-.67-2.42-2.77-2.84-4.88-.55-2.77-.4-7.58.31-9.69,1.35-4.03,1.24-4,15.67-4,12.97,0,13.32.04,14.33,1.5,2.8,4.05,2.5,13.79-.52,16.61-1.05.98-2.91,1.13-13.61,1.07-6.82-.04-12.82-.31-13.34-.61Z"/>
  <path class="cls-1" d="M23.34,18.57c-1.98-.67-4.01-2.77-4.71-4.88-.91-2.77-.66-7.58.52-9.69C21.39-.03,21.2,0,45.14,0,66.66,0,67.24.04,68.92,1.5c4.64,4.05,4.14,13.79-.86,16.61-1.74.98-4.83,1.13-22.59,1.07-11.31-.04-21.27-.31-22.14-.61Z"/>
</svg>